<?xml version="1.0" encoding="UTF-8"?>
<svg id="_Слой_1" data-name="Слой_1" xmlns="http://www.w3.org/2000/svg" version="1.1" viewBox="0 0 334.98 381.45">
  <!-- Generator: Adobe Illustrator 29.8.1, SVG Export Plug-In . SVG Version: 2.1.1 Build 2)  -->
  <defs>
    <style>
      .st0 {
        fill: none;
        stroke: #e30613;
        stroke-miterlimit: 10;
      }
    </style>
  </defs>
  <path class="st0" d="M192.93,63.37v-18.06c0-3.82-2.46-6.88-8.89-6.88,7.94-13.12-1.47-30.09-16.97-30.09s-24.93,16.93-16.97,30.09c-6.29,0-8.89,2.92-8.89,6.88v18.06C67.45,75.69,11.23,139.81,11.23,217.07c0,86.07,69.77,155.85,155.85,155.85s155.85-69.77,155.85-155.85c0-77.26-56.23-141.38-129.99-153.7ZM167.07,18.26c5.48,0,9.92,4.44,9.92,9.92s-4.44,9.92-9.92,9.92-9.92-4.44-9.92-9.92,4.44-9.92,9.92-9.92Z"/>
  <g>
    <path d="M44.29,145.34c.28-.57.56-1.14.85-1.7.73.35,1.39.53,2,.53.61,0,1.22-.19,1.85-.58.63-.39,1.17-.93,1.64-1.62.41-.61.68-1.22.8-1.82.12-.6.1-1.13-.09-1.6-.18-.47-.47-.85-.88-1.14-.41-.29-.85-.44-1.31-.43-.46,0-.98.19-1.55.56-.37.24-1.09.82-2.16,1.79-1.07.97-1.88,1.62-2.45,1.93-.73.41-1.45.61-2.15.61-.7,0-1.36-.2-1.99-.58-.69-.43-1.21-1.02-1.57-1.78-.35-.76-.44-1.62-.27-2.57.17-.95.56-1.88,1.17-2.78.67-1,1.42-1.76,2.25-2.28.83-.52,1.69-.76,2.57-.72.88.05,1.71.34,2.49.86-.34.56-.68,1.12-1.02,1.69-.89-.5-1.72-.65-2.5-.43-.78.21-1.52.83-2.2,1.85-.71,1.06-1.02,1.98-.94,2.72.08.75.4,1.3.96,1.65.49.31,1,.39,1.53.25.53-.13,1.41-.8,2.66-1.97,1.25-1.16,2.17-1.89,2.76-2.22.86-.48,1.68-.68,2.46-.63.78.05,1.51.34,2.21.84.69.5,1.2,1.16,1.56,1.96.35.8.46,1.66.33,2.57-.13.91-.48,1.79-1.05,2.64-.73,1.08-1.5,1.88-2.34,2.41-.84.52-1.75.78-2.74.77-.99,0-1.96-.28-2.89-.81Z"/>
    <path d="M50.35,118.68c.45-.52.9-1.03,1.36-1.55,2.3,2.06,4.6,4.13,6.9,6.19,1.2,1.08,2.04,2.06,2.54,2.93.49.87.69,1.82.59,2.84-.09,1.02-.57,2.04-1.43,3.08-.83,1.01-1.7,1.7-2.63,2.04-.93.34-1.89.37-2.89.06-1-.31-2.18-.97-3.53-2-2.46-1.87-4.91-3.75-7.37-5.62.42-.56.85-1.11,1.27-1.66,2.43,1.9,4.85,3.81,7.28,5.71,1.1.86,1.98,1.4,2.64,1.62.66.22,1.31.23,1.94,0,.63-.22,1.2-.64,1.71-1.26.88-1.07,1.24-2.04,1.09-2.96-.15-.91-.98-2.03-2.5-3.36-2.32-2.03-4.65-4.06-6.97-6.09Z"/>
    <path d="M61.5,122.53c.36-.48.73-.96,1.1-1.43.64.49,1.25.8,1.83.94.58.14,1.21.08,1.88-.15.67-.23,1.28-.63,1.84-1.19.5-.49.85-1.01,1.07-1.56.22-.55.28-1.06.18-1.55-.1-.49-.31-.91-.66-1.27-.34-.37-.74-.6-1.18-.69-.45-.09-.97-.03-1.58.21-.39.15-1.19.55-2.37,1.24-1.19.69-2.08,1.14-2.68,1.31-.77.23-1.49.27-2.16.11-.67-.15-1.27-.48-1.81-.99-.59-.55-1-1.23-1.21-2.03-.21-.8-.16-1.64.16-2.5.32-.86.85-1.67,1.58-2.4.8-.81,1.65-1.37,2.54-1.69.89-.32,1.75-.36,2.59-.13.84.23,1.59.69,2.25,1.36-.42.46-.84.93-1.26,1.4-.77-.67-1.55-.99-2.33-.95-.78.04-1.6.47-2.42,1.29-.86.86-1.31,1.66-1.36,2.39-.05.73.17,1.32.65,1.78.42.4.89.59,1.42.57.53-.01,1.48-.46,2.88-1.3,1.39-.84,2.4-1.33,3.02-1.52.91-.27,1.73-.29,2.47-.08.74.21,1.4.64,1.98,1.28.58.63.96,1.37,1.17,2.21.2.84.17,1.68-.11,2.53-.28.85-.76,1.61-1.45,2.3-.88.87-1.75,1.47-2.64,1.79-.89.32-1.81.36-2.76.14-.95-.22-1.83-.69-2.64-1.4Z"/>
    <path d="M73.71,117.66c-2.3-5.14-4.43-10.39-6.4-15.74.55-.46,1.1-.92,1.65-1.37,4.97,2.85,9.79,5.87,14.46,9.05-.54.4-1.07.81-1.61,1.23-1.4-.96-2.82-1.91-4.25-2.84-1.52,1.21-3.02,2.45-4.49,3.73.67,1.56,1.35,3.12,2.05,4.67-.48.42-.95.85-1.42,1.28ZM72.36,110.05c1.22-1.04,2.44-2.07,3.69-3.06-1.31-.85-2.63-1.69-3.95-2.52-1.21-.75-2.19-1.39-2.92-1.91.51.91.96,1.87,1.35,2.87.6,1.55,1.21,3.09,1.83,4.62Z"/>
    <path d="M84.55,108.77c-3.17-4.31-6.34-8.63-9.51-12.94.54-.4,1.09-.8,1.64-1.19,4.56,1.9,8.99,3.98,13.26,6.24-2.27-3.54-4.54-7.07-6.8-10.61.53-.34,1.06-.67,1.59-1,2.83,4.54,5.67,9.08,8.5,13.62-.51.32-1.02.64-1.52.96-4.23-2.28-8.61-4.4-13.13-6.33,2.45,3.42,4.9,6.84,7.35,10.26-.46.33-.92.66-1.37,1Z"/>
    <path d="M113.93,92.31c-2.03-4.95-4.06-9.9-6.1-14.85.61-.25,1.22-.49,1.83-.73,3.92,2.98,7.66,6.09,11.22,9.33-1.35-3.98-2.7-7.95-4.05-11.93.58-.2,1.16-.39,1.75-.57,1.66,5.08,3.32,10.17,4.98,15.25-.56.18-1.12.36-1.67.55-3.51-3.25-7.2-6.39-11.07-9.38,1.55,3.91,3.1,7.82,4.65,11.72-.51.2-1.02.41-1.53.61Z"/>
    <path d="M124.95,88.36c-.02-5.59.15-11.22.52-16.86.66-.18,1.33-.36,1.99-.53,3.26,4.68,6.33,9.45,9.21,14.3-.63.14-1.27.28-1.9.43-.86-1.46-1.74-2.92-2.63-4.37-1.81.44-3.62.92-5.42,1.43-.02,1.69-.03,3.38-.02,5.07-.58.17-1.16.35-1.74.53ZM126.73,80.97c1.48-.42,2.96-.81,4.45-1.18-.82-1.32-1.65-2.64-2.5-3.95-.77-1.19-1.38-2.18-1.82-2.96.09,1.04.11,2.09.07,3.15-.08,1.65-.14,3.29-.19,4.94Z"/>
    <path d="M137.98,85c-1.1-5.23-2.2-10.46-3.31-15.7.64-.13,1.28-.26,1.92-.39,3.29,3.64,6.39,7.37,9.29,11.2-.61-4.15-1.22-8.31-1.83-12.46.6-.09,1.21-.17,1.81-.25.71,5.3,1.43,10.6,2.14,15.89-.58.08-1.16.16-1.74.24-2.85-3.83-5.9-7.58-9.14-11.23.82,4.12,1.63,8.24,2.45,12.36-.54.1-1.07.21-1.61.32Z"/>
    <path d="M159.76,76.61c.6.15,1.2.31,1.79.47-.31,1.75-.92,3.11-1.81,4.06-.89.96-1.99,1.48-3.33,1.57-1.38.1-2.53-.15-3.47-.77-.94-.62-1.72-1.56-2.33-2.83-.61-1.28-1.02-2.67-1.2-4.19-.19-1.66-.09-3.14.33-4.43.42-1.3,1.12-2.32,2.11-3.06.99-.74,2.12-1.16,3.39-1.25,1.44-.1,2.68.24,3.69,1.01,1.01.77,1.73,1.89,2.16,3.36-.6.19-1.2.37-1.8.57-.38-1.15-.9-1.98-1.55-2.47-.65-.5-1.46-.71-2.41-.65-1.09.08-1.98.45-2.66,1.1-.67.65-1.1,1.49-1.29,2.51-.19,1.02-.23,2.06-.12,3.11.14,1.36.43,2.52.86,3.5.43.98,1.01,1.69,1.74,2.13.73.44,1.48.63,2.27.57.96-.07,1.76-.46,2.39-1.18.63-.72,1.04-1.76,1.23-3.12Z"/>
    <path d="M167.46,82.09c.02-2.26.03-4.53.05-6.79-1.71-3.09-3.54-6.16-5.48-9.18.77-.02,1.54-.04,2.31-.05.97,1.6,1.9,3.21,2.81,4.82.5.91.96,1.82,1.38,2.73.42-.83.94-1.77,1.56-2.8.94-1.55,1.9-3.09,2.9-4.62.74.03,1.48.07,2.21.11-2.09,2.97-4.06,5.98-5.92,9.03-.04,2.26-.09,4.53-.13,6.79-.57-.01-1.14-.02-1.7-.02Z"/>
    <path d="M192.97,84.61c2.65-4.93,5.48-9.8,8.5-14.6.67.15,1.34.31,2,.47.63,5.66,1.05,11.3,1.27,16.93-.63-.18-1.25-.35-1.88-.52-.06-1.69-.14-3.39-.23-5.09-1.81-.47-3.62-.9-5.45-1.29-.83,1.48-1.64,2.96-2.43,4.45-.59-.12-1.19-.24-1.78-.35ZM198.06,78.93c1.5.33,2.99.68,4.47,1.06-.09-1.55-.19-3.1-.31-4.65-.11-1.42-.18-2.57-.19-3.47-.42.96-.9,1.89-1.45,2.81-.86,1.41-1.7,2.83-2.53,4.25Z"/>
    <path d="M206.04,87.78c1.53-5.12,3.06-10.25,4.6-15.37.63.19,1.26.37,1.88.57,1.17,4.76,2.12,9.51,2.86,14.25,1.45-3.94,2.9-7.88,4.35-11.83.58.21,1.15.42,1.73.64-1.91,5-3.81,10-5.72,15-.55-.21-1.1-.41-1.66-.61-.69-4.72-1.59-9.46-2.71-14.21-1.25,4.01-2.5,8.02-3.76,12.04-.52-.16-1.05-.32-1.58-.48Z"/>
    <path d="M218.42,92.09c2.01-4.96,4.02-9.92,6.03-14.87.61.25,1.22.5,1.83.75.72,4.85,1.23,9.69,1.54,14.49,1.82-3.79,3.64-7.57,5.46-11.36.56.27,1.11.54,1.67.81-2.37,4.8-4.75,9.59-7.12,14.39-.53-.26-1.07-.52-1.6-.77-.25-4.78-.71-9.59-1.39-14.42-1.63,3.88-3.25,7.75-4.88,11.63-.51-.21-1.02-.42-1.53-.63Z"/>
    <path d="M247.83,108.38c3.15-4.33,6.3-8.65,9.45-12.98.8.58,1.6,1.18,2.39,1.78-1.35,3.73-2.77,7.43-4.27,11.08-.42,1.02-.75,1.77-.97,2.27.49-.36,1.21-.87,2.19-1.54,3.21-2.19,6.48-4.31,9.8-6.37.68.58,1.36,1.17,2.03,1.77-3.54,4.02-7.07,8.03-10.61,12.05-.43-.38-.87-.76-1.3-1.14,2.92-3.4,5.84-6.8,8.75-10.19-4.01,2.46-7.93,5.02-11.76,7.67-.42-.34-.83-.67-1.25-1.01,1.81-4.38,3.51-8.82,5.11-13.32-2.73,3.65-5.45,7.3-8.18,10.95-.46-.34-.91-.68-1.37-1.01Z"/>
    <path d="M258.89,117.38c4.87-2.81,9.87-5.46,14.99-7.93.52.51,1.04,1.02,1.55,1.54-2.3,5.27-4.78,10.42-7.44,15.45-.47-.51-.94-1.02-1.42-1.53.8-1.51,1.59-3.03,2.37-4.56-1.38-1.43-2.79-2.83-4.21-4.19-1.49.82-2.96,1.66-4.43,2.51-.47-.44-.94-.87-1.41-1.29ZM266.31,115.29c1.17,1.12,2.32,2.27,3.46,3.43.71-1.4,1.4-2.8,2.08-4.22.62-1.29,1.15-2.33,1.59-3.12-.86.6-1.77,1.14-2.72,1.62-1.48.74-2.95,1.5-4.41,2.28Z"/>
    <path d="M269,127.55c3.97-3.59,7.94-7.17,11.9-10.76,1.53,1.71,3.03,3.46,4.5,5.26.88,1.08,1.44,2.01,1.66,2.76.22.75.18,1.53-.14,2.32-.31.79-.82,1.45-1.52,1.99-.9.69-1.88.99-2.92.92-1.04-.07-2.08-.6-3.13-1.57.12.57.15,1.05.12,1.42-.09.8-.32,1.67-.68,2.59-.63,1.57-1.28,3.12-1.95,4.65-.47-.63-.95-1.26-1.43-1.88.5-1.18.98-2.36,1.45-3.56.4-1.04.68-1.87.85-2.47.16-.61.23-1.09.2-1.45-.03-.36-.11-.68-.24-.96-.1-.2-.32-.5-.64-.88-.49-.58-.98-1.15-1.47-1.71-1.78,1.57-3.57,3.14-5.35,4.71-.4-.46-.81-.92-1.22-1.38ZM276.95,123.01c.93,1.06,1.84,2.14,2.74,3.24.57.7,1.1,1.19,1.57,1.46.48.27.97.38,1.48.32.51-.06.97-.25,1.38-.57.6-.47.92-1.06.98-1.79.05-.72-.28-1.54-1.01-2.43-1.04-1.27-2.09-2.51-3.15-3.74-1.33,1.17-2.66,2.34-3.99,3.51Z"/>
    <path d="M280.02,141.57c1.86-1.29,3.72-2.58,5.58-3.87,1.43-3.35,2.77-6.77,4.01-10.26.51.68,1.02,1.37,1.52,2.06-.69,1.8-1.41,3.58-2.15,5.34-.42.98-.87,1.93-1.35,2.83.95-.09,2.05-.15,3.29-.18,1.87-.03,3.74-.02,5.63.02.45.71.89,1.42,1.33,2.13-3.76-.24-7.49-.34-11.16-.3-1.88,1.26-3.76,2.53-5.64,3.79-.35-.53-.71-1.06-1.07-1.58Z"/>
  </g>
  <g>
    <path d="M102.52,350.83c.34.32.57.63.67.93.1.3.1.56-.01.77-.11.22-.33.36-.65.43-.32.07-.72.03-1.21-.13-.75-.37-1.5-.76-2.24-1.16-.75-.4-1.49-.81-2.22-1.23-.66-.36-1.38-.77-2.16-1.23-.78-.46-1.51-.89-2.19-1.27-.8-.6-1.06-1.24-.76-1.92.63-.99,1.25-1.95,1.86-2.9.62-.95,1.24-1.92,1.86-2.9.64-.97,1.27-1.95,1.89-2.92.61-.97,1.24-1.95,1.86-2.93.27-.25.57-.38.89-.4.32-.02.62.06.9.23.29.18.5.41.64.69.14.28.18.6.13.96-.57.94-1.13,1.87-1.7,2.79-.57.92-1.12,1.84-1.67,2.75-.58.92-1.13,1.81-1.65,2.68-.53.87-1.07,1.77-1.63,2.7.6.32,1.18.65,1.75.99.57.34,1.15.67,1.75.99.62.35,1.26.7,1.91,1.05.65.35,1.32.69,1.99,1.02Z"/>
    <path d="M120.2,360c-.19.4-.46.66-.81.77-.35.11-.72.09-1.11-.05-.29-.11-.54-.28-.76-.51-.22-.24-.36-.53-.42-.87.18-.78.31-1.57.38-2.36.07-.79.09-1.62.07-2.48-1.23-.48-2.45-.98-3.67-1.48-1.22-.5-2.45-1.04-3.67-1.61-.02,0-.04-.02-.06-.03-.54.57-1.06,1.11-1.55,1.63-.49.52-.99,1.09-1.5,1.71-.32.28-.65.43-.99.47-.33.04-.65-.02-.94-.16-.41-.2-.71-.51-.88-.92-.17-.41-.09-.8.24-1.17,1.75-1.95,3.59-3.79,5.48-5.55,1.89-1.76,3.95-3.42,6.15-5.01-.01,0-.02,0-.04.01.29-.28.7-.35,1.22-.24,0,0-.02,0-.03-.01.54.06.93.33,1.17.79.28.58.51,1.19.7,1.83.19.64.35,1.29.48,1.94.13.65.24,1.3.33,1.94.09.64.18,1.26.25,1.84.05.38.09.8.14,1.26.04.46.08.91.11,1.36.21.08.44.16.7.25.25.08.49.16.7.24.36.26.61.53.73.8.12.27.14.52.06.75-.08.23-.27.42-.56.55-.29.13-.68.16-1.16.08-.12-.04-.24-.09-.35-.13.01,1.47-.12,2.93-.41,4.37ZM117.09,348.09c-.07-.45-.15-.91-.22-1.36-.08-.46-.16-.87-.26-1.24-.79.64-1.57,1.3-2.33,1.98-.76.68-1.53,1.39-2.32,2.14.96.44,1.89.84,2.78,1.2.89.36,1.82.74,2.79,1.13-.04-.57-.09-1.11-.16-1.64-.07-.53-.13-1.08-.17-1.65-.03-.19-.06-.37-.09-.56Z"/>
    <path d="M125.43,361.6c-.15.42-.42.67-.81.77-.38.1-.75.09-1.1-.02-.37-.12-.68-.33-.93-.63-.25-.3-.34-.65-.27-1.06.37-1.07.74-2.14,1.11-3.19.37-1.06.75-2.13,1.12-3.22.37-1.07.73-2.16,1.1-3.27.37-1.11.75-2.24,1.14-3.39.21-.32.47-.53.78-.62.31-.09.62-.08.95.02.27.09.52.26.73.52.21.25.31.56.3.93-.29.91-.58,1.82-.87,2.73-.14.46-.28.87-.41,1.23-.13.37-.27.8-.42,1.28,1.18-.12,2.3-.45,3.34-.96,1.04-.51,1.99-1.05,2.85-1.6.28-.22.58-.44.91-.66.32-.23.67-.44,1.04-.66.45-.19.87-.24,1.28-.13.37.09.66.27.86.54.2.27.27.56.19.86-.03.12-.12.3-.28.53-.38.25-.75.49-1.11.71-.36.22-.69.45-.99.68-.85.55-1.66,1.05-2.43,1.5-.77.45-1.62.82-2.57,1.1.35.6.71,1.2,1.08,1.8.65,1.04,1.3,2.05,1.95,3.03.65.98,1.33,1.99,2.04,3.03.28.48.39.86.32,1.14-.07.31-.27.53-.58.67-.32.13-.69.15-1.1.05-.23-.06-.45-.14-.67-.26-.21-.12-.39-.29-.54-.5-.08-.13-.21-.34-.4-.62-.19-.29-.41-.62-.67-1-.25-.38-.53-.79-.83-1.25-.3-.46-.61-.92-.91-1.39-.3-.47-.59-.93-.86-1.38-.27-.45-.52-.86-.76-1.23-.23-.37-.43-.7-.58-.97-.15-.27-.26-.47-.33-.6-.17,0-.33,0-.48-.01-.15,0-.34-.01-.58-.02-.12.39-.26.82-.4,1.29-.14.47-.28.96-.43,1.45-.15.49-.29.98-.43,1.46-.14.48-.27.92-.37,1.32Z"/>
    <path d="M150.13,365.28c.59.04,1.03.2,1.32.46.29.27.42.56.39.88-.02.19-.13.38-.32.56-.19.18-.48.33-.86.44-.91.1-1.89.13-2.92.09-1.03-.04-2.07-.14-3.1-.32-1.56-.27-2.99-.68-4.26-1.22-.62-.45-.86-.91-.72-1.37.78-3.73,1.56-7.46,2.33-11.19-.26-.14-.43-.32-.52-.53-.09-.21-.11-.42-.07-.62.05-.22.18-.42.41-.58.22-.16.53-.27.94-.33,1.11-.08,2.23-.05,3.36.09,1.13.14,2.27.3,3.42.47.41.06.83.12,1.23.17.41.05.81.09,1.21.13.47.08.85.25,1.14.52.29.27.43.53.4.8-.03.26-.17.5-.42.7-.25.2-.61.32-1.08.35-.39-.03-.8-.07-1.23-.13-.43-.05-.87-.11-1.31-.18-.79-.12-1.56-.23-2.32-.34-.76-.11-1.53-.18-2.32-.22-.27,1.46-.54,2.92-.82,4.38.19.05.38.09.56.12.18.02.38.06.6.09.77.14,1.55.25,2.34.34.79.09,1.6.16,2.42.2.56.04.98.2,1.26.48.28.28.4.56.36.86-.03.26-.17.48-.42.67-.25.19-.61.29-1.09.32-.9-.04-1.8-.1-2.69-.2-.9-.1-1.8-.23-2.7-.39-.22-.04-.4-.07-.53-.08-.13-.02-.31-.05-.53-.11-.25,1.32-.49,2.64-.74,3.96.39.11.76.21,1.12.3.36.09.73.17,1.13.24.85.14,1.7.23,2.55.26.85.03,1.67,0,2.46-.07.01,0,.02,0,.03,0Z"/>
    <path d="M175.54,353.47c.39.1.69.26.9.48.21.22.32.44.31.66,0,.26-.11.5-.32.72-.21.21-.54.38-.98.49-1.42.08-2.85.14-4.27.17.04,2.11.08,4.22.12,6.34.05,2.12.09,4.23.13,6.34-.01.46-.18.8-.51,1.02-.33.22-.69.33-1.07.33-.37,0-.7-.1-1.01-.3-.31-.2-.5-.51-.56-.92,0-4.26.02-8.52.03-12.78-1.44,0-2.89-.04-4.33-.09-.48-.11-.83-.28-1.04-.52-.21-.24-.3-.5-.27-.77.03-.28.18-.53.44-.74.26-.22.65-.31,1.18-.29,2,.07,3.67.09,5.02.08,1.35,0,2.46-.03,3.31-.06.86-.03,1.51-.06,1.95-.08.45-.02.77-.04.96-.05Z"/>
    <path d="M194.9,366.13c.04.44-.07.8-.31,1.07-.25.27-.57.44-.97.51-.3.05-.6.03-.91-.06-.31-.09-.57-.27-.79-.54-.23-.77-.52-1.51-.85-2.23-.34-.72-.73-1.44-1.17-2.18-1.29.19-2.57.38-3.86.56-1.29.18-2.59.33-3.9.45-.02,0-.04,0-.06,0-.18.76-.34,1.49-.5,2.19-.16.7-.3,1.44-.43,2.23-.14.4-.34.7-.6.9-.26.2-.55.31-.88.33-.45.03-.85-.09-1.2-.35-.35-.27-.47-.65-.38-1.13.52-2.57,1.15-5.08,1.87-7.55.73-2.47,1.65-4.94,2.72-7.42,0,0-.02.02-.03.03.11-.39.42-.66.91-.82,0,0-.02,0-.03,0,.49-.22.95-.18,1.39.1.52.36,1.02.77,1.5,1.23.48.46.94.94,1.37,1.44.44.5.85,1.01,1.25,1.52.4.51.77,1,1.13,1.46.23.3.48.64.74,1.02.26.38.52.75.77,1.12.22-.04.46-.08.72-.14.26-.05.5-.1.72-.14.44.05.78.16,1.02.33.24.17.38.38.43.62.05.24-.02.5-.21.75-.18.26-.5.47-.95.64-.12.02-.24.04-.37.06.75,1.27,1.36,2.6,1.83,3.98ZM186.32,357.39c-.29-.35-.57-.71-.87-1.07-.29-.36-.57-.67-.84-.94-.36.95-.69,1.91-.99,2.88-.3.97-.6,1.97-.91,3.02,1.03-.1,2.01-.22,2.94-.35.93-.13,1.91-.27,2.94-.42-.32-.47-.63-.92-.96-1.34-.32-.42-.64-.87-.97-1.34-.12-.14-.24-.29-.36-.43Z"/>
    <path d="M209.18,354.67c.61-.15,1.03-.13,1.25.07.22.2.38.45.48.75.09.29.1.58.02.88-.08.3-.41.57-.99.78.49,1.59.98,3.18,1.47,4.76.17.54.1.97-.21,1.29-.31.32-.68.54-1.12.67-.39.12-.77.1-1.14-.04-.37-.14-.62-.46-.76-.96-.45-1.6-.91-3.2-1.36-4.8-2.5.71-5.02,1.35-7.55,1.91.36,1.61.72,3.23,1.08,4.84.12.55.02.97-.31,1.26-.33.29-.71.48-1.13.57-.4.08-.78.04-1.13-.13-.35-.17-.58-.51-.68-1.01-.88-4.43-1.77-8.86-2.65-13.29-.06-.31-.06-.58.02-.8.07-.22.19-.4.34-.54.16-.14.34-.25.54-.34.2-.09.41-.15.61-.2.3-.06.58-.02.83.13.26.15.44.45.54.9.45,2.03.91,4.05,1.36,6.08,2.48-.56,4.95-1.18,7.4-1.88-.54-1.92-1.09-3.84-1.63-5.77-.09-.31-.1-.57-.05-.8.06-.23.15-.42.3-.57.15-.15.32-.28.52-.39.2-.1.4-.19.6-.25.33-.1.63-.08.89.05.26.13.46.42.6.86.61,1.98,1.23,3.97,1.84,5.95Z"/>
    <path d="M228.83,348.95c.1.64.14,1.34.12,2.11-.02.76-.13,1.54-.31,2.31-.18.78-.46,1.53-.85,2.27-.38.73-.88,1.38-1.5,1.93-.54.46-1.07.88-1.61,1.26-.54.38-1.13.69-1.75.94-.53.21-1.09.35-1.68.43-.59.08-1.19.14-1.79.19-.95.07-1.79-.04-2.54-.31-.75-.27-1.39-.64-1.95-1.12-.56-.47-1.02-1.02-1.41-1.64-.38-.62-.68-1.26-.91-1.93-.08-.23-.15-.48-.21-.74-.07-.26-.12-.51-.16-.76-.08-.55-.09-1.18-.04-1.88.05-.7.16-1.4.32-2.11.16-.71.38-1.4.65-2.06.27-.66.59-1.24.97-1.74.49-.62,1.07-1.17,1.72-1.65.65-.48,1.36-.88,2.12-1.2,1.23-.51,2.5-.73,3.83-.66,1.33.06,2.55.44,3.68,1.14.55.37,1.03.8,1.44,1.31.41.51.75,1.04,1.02,1.6.18.37.34.74.48,1.12.14.38.26.78.36,1.18ZM224.22,356.2c.58-.61,1.01-1.27,1.3-2,.29-.72.46-1.45.52-2.19.06-.73.02-1.45-.12-2.16-.14-.7-.34-1.35-.61-1.92-.19-.42-.43-.81-.7-1.18-.28-.37-.6-.69-.97-.97-.72-.49-1.53-.75-2.41-.79-.89-.04-1.73.11-2.55.44-.47.19-.89.45-1.28.76-.38.31-.72.67-1.03,1.07-.35.51-.62,1.09-.82,1.72-.2.63-.33,1.27-.39,1.91-.06.64-.07,1.28,0,1.9.06.63.19,1.2.37,1.71.23.65.55,1.23.96,1.75.41.52.9.93,1.49,1.22.58.3,1.24.46,1.96.48.73.02,1.53-.14,2.41-.49.34-.14.67-.32,1.01-.55.33-.23.62-.48.86-.73Z"/>
    <path d="M243.33,345.49c.5-.35.95-.52,1.36-.5.41.02.7.16.87.42.1.17.14.38.09.65-.04.27-.18.57-.41.9-.68.67-1.44,1.33-2.29,1.97-.85.64-1.75,1.23-2.69,1.76-1.42.8-2.82,1.4-4.18,1.79-.78.05-1.26-.15-1.44-.6-1.75-3.39-3.49-6.77-5.24-10.16-.3.05-.55.03-.75-.08-.2-.1-.35-.25-.45-.44-.1-.2-.12-.44-.04-.71.07-.27.25-.55.54-.86.84-.77,1.75-1.47,2.74-2.09.99-.62,2.01-1.23,3.04-1.84.37-.22.74-.44,1.1-.67.36-.23.71-.46,1.05-.69.43-.24.85-.36,1.26-.34.41.01.68.13.83.36.14.22.18.5.1.81-.07.32-.29.64-.65.97-.33.23-.69.46-1.07.7-.38.24-.77.48-1.17.71-.71.42-1.4.83-2.08,1.24-.68.41-1.34.85-1.99,1.32.71,1.3,1.42,2.61,2.13,3.91.19-.08.36-.17.52-.27.16-.1.34-.2.54-.31.71-.39,1.4-.81,2.09-1.25.69-.44,1.38-.91,2.08-1.41.48-.33.92-.48,1.32-.45.4.03.68.17.84.43.14.22.17.49.09.8-.08.31-.31.63-.68.95-.75.56-1.51,1.09-2.29,1.59-.78.5-1.58.99-2.41,1.45-.2.11-.36.2-.48.28-.12.07-.28.16-.49.25.64,1.18,1.28,2.36,1.93,3.54.38-.16.74-.33,1.08-.49.34-.16.7-.34,1.05-.54.77-.44,1.51-.92,2.21-1.45.7-.53,1.35-1.08,1.94-1.65,0,0,.02-.01.03-.02Z"/>
  </g>
  <ellipse cx="165.53" cy="216.44" rx="131.89" ry="131.95"/>
</svg>